<?xml version="1.0" ?><!DOCTYPE svg  PUBLIC '-//W3C//DTD SVG 1.1//EN'  'http://www.w3.org/Graphics/SVG/1.1/DTD/svg11.dtd'><svg height="135px" id="Layer_1" style="enable-background:new 0 0 135 135;" version="1.1" viewBox="0 0 135 135" width="135px" xml:space="preserve" xmlns="http://www.w3.org/2000/svg" xmlns:xlink="http://www.w3.org/1999/xlink"><style type="text/css">
<![CDATA[
	.st0{fill:#465652;}
	.st1{fill:#AAB9BA;}
	.st2{fill:#47C67B;}
	.st3{fill:#AAC8D1;}
	.st4{fill:none;stroke:#E83834;stroke-width:6;stroke-linecap:round;stroke-linejoin:round;stroke-miterlimit:10;}
	.st5{fill:#7BC67B;}
	.st6{fill:#7BC7FF;}
	.st7{fill:#7C34C1;}
	.st8{fill:#7C8D96;}
	.st9{fill:#AD2707;}
	.st10{fill:#ADB8BC;}
	.st11{fill:#107510;}
	.st12{fill:#7FE5D8;}
	.st13{fill:#AF4AD1;}
	.st14{fill:#E02B7E;}
	.st15{fill:#E04038;}
	.st16{fill:#AFD7DD;}
	.st17{fill:#E0A010;}
	.st18{fill:#E0D5A4;}
	.st19{fill:#12B2B2;}
	.st20{fill:#12D66B;}
	.st21{fill:#E1A9FF;}
	.st22{fill:#1362A8;}
	.st23{fill:#E2378D;}
	.st24{fill:#E29C37;}
	.st25{fill:#E2B90E;}
	.st26{fill:#E2BF91;}
	.st27{fill:#E2CBAA;}
	.st28{fill:#14A594;}
	.st29{fill:#E4E9ED;}
	.st30{fill:#4A5D60;}
	.st31{fill:#E5B076;}
	.st32{fill:#E5B1C4;}
	.st33{fill:#E5E4C3;}
	.st34{fill:#4B6466;}
	.st35{fill:#E6FF2E;}
	.st36{fill:#18AA67;}
	.st37{fill:#E86207;}
	.st38{fill:#E8A113;}
	.st39{fill:#E8B5A6;}
	.st40{fill:#E8E8ED;}
	.st41{fill:#4E5154;}
	.st42{fill:#E9F1F4;}
	.st43{fill:#4F4B48;}
	.st44{fill:#4F74E8;}
	.st45{fill:#808E93;}
	.st46{fill:#80949B;}
	.st47{fill:#80EDAC;}
	.st48{fill:#B122E0;}
	.st49{fill:#B2C4CC;}
	.st50{fill:#83D839;}
	.st51{fill:#B3C6C6;}
	.st52{fill:none;stroke:#33363A;stroke-width:3;stroke-linecap:round;stroke-linejoin:round;stroke-miterlimit:10;}
	.st53{fill:#1A8E1C;}
	.st54{fill:#1A93D6;}
	.st55{fill:#B50B0B;}
	.st56{fill:#1AD88F;}
	.st57{fill:#B5DAF4;}
	.st58{fill:#EA7B1F;}
	.st59{fill:#EA81BD;}
	.st60{fill:#87B8D6;}
	.st61{fill:#87C3F4;}
	.st62{fill:#EAC79D;}
	.st63{fill:#EADF11;}
	.st64{fill:#EAE4C5;}
	.st65{fill:#B78094;}
	.st66{fill:#8844D8;}
	.st67{fill:#EBF4F7;}
	.st68{fill:#893015;}
	.st69{fill:#89410B;}
	.st70{fill:#899BA3;}
	.st71{fill:#EDE3B9;}
	.st72{enable-background:new    ;}
	.st73{fill:#50FF9F;}
	.st74{fill:#EEDCF4;}
	.st75{fill:#EFA37D;}
	.st76{fill:#EFA3CC;}
	.st77{fill:#EFC99A;}
	.st78{fill:#54AF79;}
	.st79{fill:#BA503A;}
	.st80{fill:#BA8663;}
	.st81{fill:#8B4FE0;}
	.st82{fill:#58ED9B;}
	.st83{fill:#BC7DFF;}
	.st84{fill:#8D9AA3;}
	.st85{fill:#BCCAD3;}
	.st86{fill:#8DE4FF;}
	.st87{fill:#20B518;}
	.st88{fill:#BF44F2;}
	.st89{fill:#21CEA1;}
	.st90{fill:#BFDAE0;}
	.st91{fill:#F0FBFC;}
	.st92{fill:#F2D9A7;}
	.st93{fill:#F2EAC9;}
	.st94{fill:#24D1AF;}
	.st95{fill:#25931C;}
	.st96{fill:#F4C4B3;}
	.st97{fill:#F4D3A2;}
	.st98{fill:#F4D647;}
	.st99{fill:#F4D7B8;}
	.st100{fill:#F4EC8E;}
	.st101{fill:#5B524D;}
	.st102{fill:#F77819;}
	.st103{fill:#F79AE1;}
	.st104{fill:#5E707A;}
	.st105{fill:#F93585;}
	.st106{fill:#F95D5D;}
	.st107{fill:#F9C19B;}
	.st108{fill:#F9CB58;}
	.st109{fill:#F9D2B2;}
	.st110{fill:#F9F07D;}
	.st111{fill:#F9F1D2;}
	.st112{fill:#F9F4B7;}
	.st113{fill:#F9F9E4;}
	.st114{fill:#5F1DAA;}
	.st115{fill:#5F9AD6;}
	.st116{fill:#C0C0C4;}
	.st117{fill:#91EA57;}
	.st118{fill:#C12727;}
	.st119{fill:#C191A0;}
	.st120{fill:#923BB7;}
	.st121{fill:#93A0A3;}
	.st122{fill:#93F9EA;}
	.st123{fill:#93FF5A;}
	.st124{fill:#C4833D;}
	.st125{fill:#95A2A5;}
	.st126{fill:#965514;}
	.st127{fill:#96562C;}
	.st128{fill:#2AF42F;}
	.st129{fill:#C5D7DD;}
	.st130{fill:#C68510;}
	.st131{fill:#C6A86D;}
	.st132{fill:#C6BB8D;}
	.st133{fill:#2C9DCE;}
	.st134{fill:#FBFCF2;}
	.st135{fill:#FC70B0;}
	.st136{fill:#FCE6C8;}
	.st137{fill:#FCF7E3;}
	.st138{fill:#C90D6B;}
	.st139{fill:#FDFEFF;}
	.st140{fill:#FDFFDC;}
	.st141{fill:#FF1A1A;}
	.st142{fill:#FF5252;}
	.st143{fill:#FF5B00;}
	.st144{fill:#FF6155;}
	.st145{fill:#FF630D;}
	.st146{fill:#FF6666;}
	.st147{fill:#FF7676;}
	.st148{fill:#FF7900;}
	.st149{fill:#FF860D;}
	.st150{fill:#FF8B00;}
	.st151{fill:#FF8F8F;}
	.st152{fill:#FF900B;}
	.st153{fill:#FF908A;}
	.st154{fill:#FF960B;}
	.st155{fill:#FF9C0D;}
	.st156{fill:#FFA9D4;}
	.st157{fill:#FFAA00;}
	.st158{fill:#FFAD40;}
	.st159{fill:#FFAF10;}
	.st160{fill:#FFB000;}
	.st161{fill:#FFBE08;}
	.st162{fill:#FFBF31;}
	.st163{fill:#FFC200;}
	.st164{fill:#FFCAE8;}
	.st165{fill:#FFCCF5;}
	.st166{fill:#FFD00B;}
	.st167{fill:#FFD039;}
	.st168{fill:#FFD400;}
	.st169{fill:#FFD833;}
	.st170{fill:#FFDB80;}
	.st171{fill:#FFDDD2;}
	.st172{fill:#FFE6D4;}
	.st173{fill:#FFE6EB;}
	.st174{fill:#FFE98D;}
	.st175{fill:#FFECD2;}
	.st176{fill:#FFF1D9;}
	.st177{fill:#FFF24D;}
	.st178{fill:#FFF3C2;}
	.st179{fill:#FFF4C7;}
	.st180{fill:#FFF800;}
	.st181{fill:#FFF80D;}
	.st182{fill:#FFF9DE;}
	.st183{fill:#FFFBD7;}
	.st184{fill:#FFFBEB;}
	.st185{fill:#FFFCC0;}
	.st186{fill:#FFFCDC;}
	.st187{fill:#FFFFFA;}
	.st188{fill:#FFFFFF;}
	.st189{fill:#63797F;}
	.st190{fill:#65E529;}
	.st191{fill:#66310E;}
	.st192{fill:#663C17;}
	.st193{fill:#9A5AE5;}
	.st194{fill:#CA30EF;}
	.st195{fill:#6892FC;}
	.st196{fill:#9CFFC4;}
	.st197{fill:#CC4306;}
	.st198{fill:#CC549E;}
	.st199{fill:#9E3256;}
	.st200{fill:#CDFFBB;}
	.st201{fill:#CE86AF;}
	.st202{fill:#CED9DD;}
	
		.st203{fill:none;stroke:#33363A;stroke-width:3;stroke-linecap:round;stroke-linejoin:round;stroke-miterlimit:10;stroke-dasharray:6;}
	.st204{fill:#CFE1E2;}
	.st205{fill:#33363A;}
	.st206{fill:#34C166;}
	.st207{fill:#364B5B;}
	.st208{fill:#3662CE;}
	.st209{fill:#36C6FF;}
	.st210{fill:#6ADB9A;}
	.st211{fill:#6D5C4D;}
	.st212{fill:#6EBDF9;}
	.st213{fill:#0031FF;}
	.st214{fill:#0062FF;}
	.st215{fill:#0068FF;}
	.st216{fill:#0086FF;}
	.st217{fill:#009BE8;}
	.st218{fill:#00AAFF;}
	.st219{fill:#D271FF;}
	.st220{fill:#D363A9;}
	.st221{fill:#D3964C;}
	.st222{fill:#D3DFE2;}
	.st223{fill:#D3E0E2;}
	.st224{fill:#D3EFF4;}
	.st225{fill:#063B66;}
	.st226{fill:#D60909;}
	.st227{fill:#D61D1D;}
	.st228{fill:#D7F0FF;}
	.st229{fill:#09B285;}
	.st230{fill:#D8D593;}
	.st231{fill:#D8E2EA;}
	.st232{fill:#D8E5EA;}
	.st233{fill:#3E5054;}
	.st234{fill:#D988FF;}
	.st235{fill:#D9E7E8;}
	.st236{fill:#702252;}
	.st237{fill:#70D3E0;}
	.st238{fill:#A02FF2;}
	.st239{fill:#A2F255;}
	.st240{fill:#A35616;}
	.st241{fill:#A3CCCC;}
	.st242{fill:#0A6ADD;}
	.st243{fill:#A5145D;}
	.st244{fill:#A57555;}
	.st245{fill:#77D6FC;}
	.st246{fill:#7815CE;}
	.st247{fill:#A7BBC1;}
	.st248{fill:#DBD279;}
	.st249{fill:#0D5C9E;}
	.st250{fill:#A83C11;}
	.st251{fill:#A8633D;}
	.st252{fill:#A8A3E5;}
	.st253{fill:#DCE6EA;}
	.st254{fill:#DCE7EA;}
	.st255{fill:#A962E8;}
	.st256{fill:#DD2466;}
	.st257{fill:#DDC38A;}
	.st258{fill:#DDD2B1;}
	.st259{fill:#DFE7E8;}
	.st260{fill:#42B1E8;}
	.st261{fill:#436377;}
	.st262{fill:#43B530;}
]]>
</style><g><g><g><g><path class="st255" d="M42.782,39.678c0,13.918,1.373,22.463-12.545,22.463S5.038,50.859,5.038,36.941      S16.319,11.74,30.237,11.74S42.782,25.76,42.782,39.678z"/></g><g><path class="st81" d="M5.038,36.941c0,12.906,9.703,23.539,22.213,25.016c10.521-1.287,9.379-9.523,9.379-22.279      c0-12.9,1.168-25.879-9.74-27.709C14.556,13.607,5.038,24.158,5.038,36.941z"/></g><g><path class="st27" d="M23.929,41.76c0,13.918,20.227,20.381,6.309,20.381S5.038,50.859,5.038,36.941S16.319,11.74,30.237,11.74      S23.929,27.842,23.929,41.76z"/></g><g><path class="st93" d="M12.733,41.76c0-11.846,14.639-25.268,10.418-29.002C12.685,15.82,5.038,25.484,5.038,36.941      c0,11.678,7.945,21.496,18.723,24.355C25.437,59.141,12.733,52.797,12.733,41.76z"/></g><g><path class="st205" d="M30.237,63.641c-0.829,0-1.5-0.672-1.5-1.5s0.671-1.5,1.5-1.5c1.642,0,2.563-0.097,3.073-0.192      c-0.474-0.605-1.356-1.497-2.104-2.253c-3.495-3.536-8.778-8.881-8.778-16.436c0-6.461,3.998-13.22,7.209-18.65      c2.051-3.468,4.604-7.784,3.875-9.062c-0.108-0.189-0.664-0.808-3.275-0.808c-0.829,0-1.5-0.672-1.5-1.5s0.671-1.5,1.5-1.5      c3.067,0,4.991,0.759,5.881,2.321c1.592,2.791-0.831,6.888-3.898,12.074c-3.026,5.116-6.792,11.484-6.792,17.124      c0,6.322,4.761,11.139,7.912,14.326c2.313,2.34,3.842,3.887,3.115,5.627C35.782,63.325,33.666,63.641,30.237,63.641z"/></g><g><path class="st205" d="M30.237,63.641c-14.722,0-26.699-11.978-26.699-26.699c0-14.723,11.977-26.701,26.699-26.701      c4.062,0,7.263,1.149,9.512,3.418c4.697,4.735,4.626,13.401,4.551,22.575c-0.009,1.144-0.019,2.294-0.019,3.444      c0,1.184,0.01,2.327,0.02,3.431c0.066,7.626,0.119,13.648-3.427,17.226C38.638,62.59,35.258,63.641,30.237,63.641z       M30.237,13.24c-13.068,0-23.699,10.632-23.699,23.701c0,13.067,10.631,23.699,23.699,23.699c4.111,0,6.894-0.791,8.507-2.419      c2.666-2.688,2.621-7.889,2.558-15.087c-0.009-1.111-0.02-2.265-0.02-3.457c0-1.158,0.009-2.317,0.019-3.469      c0.07-8.531,0.135-16.59-3.682-20.438C35.931,14.068,33.516,13.24,30.237,13.24z"/></g></g><g><g><path class="st255" d="M92.218,39.678c0,13.918-1.373,22.463,12.545,22.463s25.199-11.281,25.199-25.199      S118.681,11.74,104.763,11.74S92.218,25.76,92.218,39.678z"/></g><g><path class="st81" d="M129.962,36.941c0,12.906-9.703,23.539-22.213,25.016c-10.521-1.287-9.379-9.523-9.379-22.279      c0-12.9-1.168-25.879,9.74-27.709C120.444,13.607,129.962,24.158,129.962,36.941z"/></g><g><path class="st27" d="M111.071,41.76c0,13.918-20.227,20.381-6.309,20.381s25.199-11.281,25.199-25.199      S118.681,11.74,104.763,11.74S111.071,27.842,111.071,41.76z"/></g><g><path class="st93" d="M122.267,41.76c0-11.846-14.639-25.268-10.418-29.002c10.467,3.062,18.113,12.727,18.113,24.184      c0,11.678-7.945,21.496-18.723,24.355C109.563,59.141,122.267,52.797,122.267,41.76z"/></g><g><path class="st205" d="M104.763,63.641c-3.428,0-5.544-0.315-6.218-1.928c-0.727-1.74,0.801-3.287,3.115-5.627      c3.15-3.188,7.912-8.004,7.912-14.326c0-5.64-3.766-12.008-6.792-17.124c-3.068-5.187-5.491-9.283-3.898-12.074      c0.891-1.562,2.814-2.321,5.881-2.321c0.829,0,1.5,0.672,1.5,1.5s-0.671,1.5-1.5,1.5c-2.612,0-3.167,0.618-3.275,0.808      c-0.729,1.277,1.824,5.594,3.875,9.062c3.212,5.431,7.209,12.189,7.209,18.65c0,7.555-5.283,12.899-8.778,16.436      c-0.748,0.756-1.629,1.647-2.104,2.253c0.51,0.096,1.431,0.192,3.073,0.192c0.829,0,1.5,0.672,1.5,1.5      S105.591,63.641,104.763,63.641z"/></g><g><path class="st205" d="M104.763,63.641c-5.021,0-8.401-1.051-10.638-3.307c-3.545-3.577-3.493-9.6-3.427-17.226      c0.01-1.104,0.02-2.247,0.02-3.431c0-1.15-0.009-2.301-0.019-3.444c-0.075-9.174-0.146-17.84,4.551-22.575      c2.25-2.269,5.45-3.418,9.512-3.418c14.722,0,26.699,11.979,26.699,26.701C131.462,51.663,119.485,63.641,104.763,63.641z       M104.763,13.24c-3.279,0-5.693,0.828-7.382,2.53c-3.817,3.849-3.751,11.907-3.682,20.438c0.01,1.151,0.019,2.311,0.019,3.469      c0,1.192-0.01,2.346-0.02,3.457c-0.063,7.198-0.108,12.398,2.558,15.087c1.613,1.628,4.396,2.419,8.507,2.419      c13.068,0,23.699-10.632,23.699-23.699C128.462,23.872,117.831,13.24,104.763,13.24z"/></g></g></g><g><g><g><g><g><path class="st83" d="M116.709,82.4c0,20.676-22.032,37.441-49.209,37.441c-27.178,0-49.209-16.766-49.209-37.441        c0-20.68,22.031-45.459,49.209-45.459C94.677,36.941,116.709,61.721,116.709,82.4z"/></g><g><path class="st255" d="M116.709,82.4c0,20.676-22.032,37.441-49.209,37.441c-27.178,0-49.209-16.766-49.209-37.441        c0-20.68,22.031-34.928,49.209-34.928C94.677,47.473,116.709,61.721,116.709,82.4z"/></g><g><path class="st93" d="M116.709,82.4c0,20.676-22.032,37.441-49.209,37.441c-27.178,0-49.209-16.766-49.209-37.441        c0-20.682,6.261,18.34,49.209,18.34S116.709,61.719,116.709,82.4z"/></g><g><path class="st184" d="M67.5,108.74c-38.647,0-47.585-31.59-48.988-22.848c2.316,19.037,23.359,33.949,48.988,33.949        c25.628,0,46.672-14.912,48.988-33.949C115.085,77.15,106.147,108.74,67.5,108.74z"/></g><g><path class="st205" d="M67.5,121.342c-27.961,0-50.709-17.469-50.709-38.941c0-3.88,0-7.545,2.604-7.545        c1.409,0,2.539,1.291,4.79,3.863C30.011,85.38,42.136,99.24,67.5,99.24c25.361,0,37.487-13.859,43.314-20.521        c2.251-2.573,3.381-3.864,4.791-3.864c2.604,0,2.604,3.665,2.604,7.545C118.209,103.873,95.461,121.342,67.5,121.342z         M19.937,78.492c-0.081,0.726-0.146,1.926-0.146,3.908c0,19.818,21.402,35.941,47.709,35.941s47.709-16.123,47.709-35.941        c0-1.982-0.065-3.183-0.146-3.908c-0.568,0.577-1.308,1.422-1.991,2.203c-6.119,6.993-18.85,21.545-45.572,21.545        c-26.726,0-39.456-14.553-45.574-21.546C21.244,79.914,20.505,79.069,19.937,78.492z"/></g><g><path class="st205" d="M67.5,121.342c-27.961,0-50.709-17.469-50.709-38.941c0-21.27,22.62-46.959,50.709-46.959        c13.041,0,25.772,5.472,35.849,15.406c9.305,9.174,14.86,20.97,14.86,31.553C118.209,103.873,95.461,121.342,67.5,121.342z         M67.5,38.441c-26.428,0-47.709,24.048-47.709,43.959c0,19.818,21.402,35.941,47.709,35.941s47.709-16.123,47.709-35.941        C115.209,62.489,93.928,38.441,67.5,38.441z"/></g></g><g><g><g><g><g><path class="st243" d="M51.338,87.672c0,4.449-3.605,8.051-8.052,8.051c-4.447,0-8.051-3.602-8.051-8.051           c0-4.447,3.604-8.051,8.051-8.051C47.732,79.621,51.338,83.225,51.338,87.672z"/></g><g><path class="st205" d="M51.338,87.672c0,4.449-3.605,1.664-8.052,1.664c-4.447,0-8.051,2.785-8.051-1.664           c0-4.447,3.604-8.051,8.051-8.051C47.732,79.621,51.338,83.225,51.338,87.672z"/></g><g><path class="st205" d="M43.286,97.223c-5.266,0-9.551-4.284-9.551-9.551s4.285-9.551,9.551-9.551           c5.267,0,9.552,4.284,9.552,9.551S48.553,97.223,43.286,97.223z M43.286,81.121c-3.612,0-6.551,2.938-6.551,6.551           s2.938,6.551,6.551,6.551c3.613,0,6.552-2.938,6.552-6.551S46.899,81.121,43.286,81.121z"/></g></g><g><g><circle class="st188" cx="39.282" cy="85.055" r="3.281"/></g><g><path class="st205" d="M39.281,89.836c-2.636,0-4.78-2.145-4.78-4.781c0-2.636,2.145-4.779,4.78-4.779           c2.636,0,4.781,2.144,4.781,4.779C44.062,87.691,41.917,89.836,39.281,89.836z M39.281,83.275           c-0.981,0-1.78,0.798-1.78,1.779c0,0.982,0.799,1.781,1.78,1.781c0.982,0,1.781-0.799,1.781-1.781           C41.062,84.073,40.264,83.275,39.281,83.275z"/></g></g></g><g><g><g><path class="st243" d="M99.765,87.672c0,4.449-3.604,8.051-8.051,8.051c-4.447,0-8.052-3.602-8.052-8.051           c0-4.447,3.604-8.051,8.052-8.051C96.16,79.621,99.765,83.225,99.765,87.672z"/></g><g><path class="st205" d="M99.765,87.672c0,4.449-3.604,1.664-8.051,1.664c-4.447,0-8.052,2.785-8.052-1.664           c0-4.447,3.604-8.051,8.052-8.051C96.16,79.621,99.765,83.225,99.765,87.672z"/></g><g><path class="st205" d="M91.714,97.223c-5.267,0-9.552-4.284-9.552-9.551s4.285-9.551,9.552-9.551           c5.266,0,9.551,4.284,9.551,9.551S96.98,97.223,91.714,97.223z M91.714,81.121c-3.613,0-6.552,2.938-6.552,6.551           s2.939,6.551,6.552,6.551c3.612,0,6.551-2.938,6.551-6.551S95.326,81.121,91.714,81.121z"/></g></g><g><g><circle class="st188" cx="87.709" cy="85.055" r="3.28"/></g><g><path class="st205" d="M87.71,89.836c-2.636,0-4.781-2.145-4.781-4.781c0-2.636,2.145-4.779,4.781-4.779           c2.635,0,4.779,2.144,4.779,4.779C92.489,87.691,90.345,89.836,87.71,89.836z M87.71,83.275           c-0.982,0-1.781,0.798-1.781,1.779c0,0.982,0.799,1.781,1.781,1.781c0.981,0,1.779-0.799,1.779-1.781           C89.489,84.073,88.691,83.275,87.71,83.275z"/></g></g></g></g></g></g></g></g><g><polygon class="st205" points="55.673,99.51 67.499,105.428 79.327,99.51   "/><path class="st205" d="M67.499,106.928c-0.23,0-0.46-0.053-0.671-0.158l-11.826-5.918c-0.622-0.312-0.948-1.01-0.789-1.687    c0.16-0.677,0.764-1.155,1.46-1.155h23.654c0.696,0,1.3,0.479,1.46,1.155c0.16,0.677-0.167,1.375-0.789,1.687L68.17,106.77    C67.959,106.875,67.729,106.928,67.499,106.928z M62.022,101.01l5.477,2.74l5.478-2.74H62.022z"/></g><g><polygon class="st223" points="73.776,123.26 61.224,123.26 57.688,107.881 77.312,107.881   "/></g><g><polygon class="st188" points="73.776,118.635 76.249,107.881 58.751,107.881 61.224,118.635   "/></g><g><path class="st205" d="M73.776,124.76H61.224c-0.699,0-1.305-0.482-1.462-1.164l-3.535-15.379    c-0.103-0.445,0.004-0.913,0.289-1.271s0.716-0.565,1.173-0.565h19.623c0.457,0,0.889,0.208,1.173,0.565s0.391,0.825,0.289,1.271    l-3.535,15.379C75.082,124.277,74.475,124.76,73.776,124.76z M62.418,121.76h10.164l2.846-12.379H59.572L62.418,121.76z"/></g><g><path class="st205" d="M67.5,123.885c-0.829,0-1.5-0.672-1.5-1.5V108.74c0-0.828,0.671-1.5,1.5-1.5s1.5,0.672,1.5,1.5v13.645    C69,123.213,68.329,123.885,67.5,123.885z"/></g><g><g><g><polyline class="st184" points="109.004,101.914 128.933,86.533 105.958,93.109     "/></g><g><path class="st205" d="M109.005,103.414c-0.449,0-0.893-0.2-1.188-0.584c-0.506-0.655-0.385-1.598,0.271-2.104l13.729-10.597      l-15.446,4.422c-0.797,0.225-1.627-0.233-1.854-1.029c-0.228-0.797,0.233-1.627,1.029-1.855l22.975-6.576      c0.69-0.197,1.427,0.124,1.751,0.766c0.324,0.643,0.147,1.425-0.422,1.864l-19.929,15.381      C109.647,103.312,109.325,103.414,109.005,103.414z"/></g></g><g><g><polyline class="st184" points="25.996,101.914 6.067,86.533 29.042,93.109     "/></g><g><path class="st205" d="M25.995,103.414c-0.32,0-0.643-0.102-0.916-0.312L5.151,87.721c-0.57-0.439-0.747-1.222-0.422-1.864      c0.324-0.642,1.059-0.963,1.751-0.766l22.975,6.576c0.796,0.229,1.257,1.059,1.029,1.855s-1.059,1.255-1.854,1.029L13.183,90.13      l13.729,10.597c0.656,0.506,0.777,1.448,0.271,2.104C26.888,103.214,26.444,103.414,25.995,103.414z"/></g></g></g><g><path class="st83" d="M77.312,91.438c0,2.064-4.393,0.906-9.812,0.906s-9.812,1.158-9.812-0.906c0-2.066,4.393-3.74,9.812-3.74    S77.312,89.371,77.312,91.438z"/></g><g><path class="st205" d="M67.88,72.409c-2.775,0-5.481-0.848-7.804-2.473c-2.993-2.094-4.991-5.229-5.626-8.826    c-1.077-6.099,3.009-11.94,9.107-13.022c5.053-0.891,9.881,2.49,10.772,7.532c0.144,0.815-0.4,1.594-1.216,1.738    c-0.815,0.145-1.594-0.4-1.738-1.217c-0.604-3.414-3.881-5.711-7.296-5.1c-4.469,0.793-7.465,5.076-6.675,9.547    c0.496,2.808,2.056,5.255,4.392,6.89c2.336,1.634,5.167,2.257,7.972,1.764c3.609-0.638,6.753-2.642,8.853-5.645    s2.906-6.643,2.269-10.251c-1.683-9.51-10.79-15.88-20.299-14.199c-0.812,0.145-1.594-0.4-1.738-1.217    c-0.144-0.815,0.4-1.594,1.216-1.738c11.14-1.962,21.804,5.492,23.775,16.632c0.776,4.397-0.205,8.834-2.764,12.492    c-2.56,3.66-6.392,6.104-10.789,6.88C69.486,72.338,68.68,72.409,67.88,72.409z"/></g></g></svg>