<?xml version="1.0" ?><!DOCTYPE svg  PUBLIC '-//W3C//DTD SVG 1.1//EN'  'http://www.w3.org/Graphics/SVG/1.1/DTD/svg11.dtd'><svg height="135px" id="Layer_1" style="enable-background:new 0 0 135 135;" version="1.1" viewBox="0 0 135 135" width="135px" xml:space="preserve" xmlns="http://www.w3.org/2000/svg" xmlns:xlink="http://www.w3.org/1999/xlink"><style type="text/css">
<![CDATA[
	.st0{fill:#465652;}
	.st1{fill:#AAB9BA;}
	.st2{fill:#47C67B;}
	.st3{fill:#AAC8D1;}
	.st4{fill:none;stroke:#E83834;stroke-width:6;stroke-linecap:round;stroke-linejoin:round;stroke-miterlimit:10;}
	.st5{fill:#7BC67B;}
	.st6{fill:#7BC7FF;}
	.st7{fill:#7C34C1;}
	.st8{fill:#7C8D96;}
	.st9{fill:#AD2707;}
	.st10{fill:#ADB8BC;}
	.st11{fill:#107510;}
	.st12{fill:#7FE5D8;}
	.st13{fill:#AF4AD1;}
	.st14{fill:#E02B7E;}
	.st15{fill:#E04038;}
	.st16{fill:#AFD7DD;}
	.st17{fill:#E0A010;}
	.st18{fill:#E0D5A4;}
	.st19{fill:#12B2B2;}
	.st20{fill:#12D66B;}
	.st21{fill:#E1A9FF;}
	.st22{fill:#1362A8;}
	.st23{fill:#E2378D;}
	.st24{fill:#E29C37;}
	.st25{fill:#E2B90E;}
	.st26{fill:#E2BF91;}
	.st27{fill:#E2CBAA;}
	.st28{fill:#14A594;}
	.st29{fill:#E4E9ED;}
	.st30{fill:#4A5D60;}
	.st31{fill:#E5B076;}
	.st32{fill:#E5B1C4;}
	.st33{fill:#E5E4C3;}
	.st34{fill:#4B6466;}
	.st35{fill:#E6FF2E;}
	.st36{fill:#18AA67;}
	.st37{fill:#E86207;}
	.st38{fill:#E8A113;}
	.st39{fill:#E8B5A6;}
	.st40{fill:#E8E8ED;}
	.st41{fill:#4E5154;}
	.st42{fill:#E9F1F4;}
	.st43{fill:#4F4B48;}
	.st44{fill:#4F74E8;}
	.st45{fill:#808E93;}
	.st46{fill:#80949B;}
	.st47{fill:#80EDAC;}
	.st48{fill:#B122E0;}
	.st49{fill:#B2C4CC;}
	.st50{fill:#83D839;}
	.st51{fill:#B3C6C6;}
	.st52{fill:none;stroke:#33363A;stroke-width:3;stroke-linecap:round;stroke-linejoin:round;stroke-miterlimit:10;}
	.st53{fill:#1A8E1C;}
	.st54{fill:#1A93D6;}
	.st55{fill:#B50B0B;}
	.st56{fill:#1AD88F;}
	.st57{fill:#B5DAF4;}
	.st58{fill:#EA7B1F;}
	.st59{fill:#EA81BD;}
	.st60{fill:#87B8D6;}
	.st61{fill:#87C3F4;}
	.st62{fill:#EAC79D;}
	.st63{fill:#EADF11;}
	.st64{fill:#EAE4C5;}
	.st65{fill:#B78094;}
	.st66{fill:#8844D8;}
	.st67{fill:#EBF4F7;}
	.st68{fill:#893015;}
	.st69{fill:#89410B;}
	.st70{fill:#899BA3;}
	.st71{fill:#EDE3B9;}
	.st72{enable-background:new    ;}
	.st73{fill:#50FF9F;}
	.st74{fill:#EEDCF4;}
	.st75{fill:#EFA37D;}
	.st76{fill:#EFA3CC;}
	.st77{fill:#EFC99A;}
	.st78{fill:#54AF79;}
	.st79{fill:#BA503A;}
	.st80{fill:#BA8663;}
	.st81{fill:#8B4FE0;}
	.st82{fill:#58ED9B;}
	.st83{fill:#BC7DFF;}
	.st84{fill:#8D9AA3;}
	.st85{fill:#BCCAD3;}
	.st86{fill:#8DE4FF;}
	.st87{fill:#20B518;}
	.st88{fill:#BF44F2;}
	.st89{fill:#21CEA1;}
	.st90{fill:#BFDAE0;}
	.st91{fill:#F0FBFC;}
	.st92{fill:#F2D9A7;}
	.st93{fill:#F2EAC9;}
	.st94{fill:#24D1AF;}
	.st95{fill:#25931C;}
	.st96{fill:#F4C4B3;}
	.st97{fill:#F4D3A2;}
	.st98{fill:#F4D647;}
	.st99{fill:#F4D7B8;}
	.st100{fill:#F4EC8E;}
	.st101{fill:#5B524D;}
	.st102{fill:#F77819;}
	.st103{fill:#F79AE1;}
	.st104{fill:#5E707A;}
	.st105{fill:#F93585;}
	.st106{fill:#F95D5D;}
	.st107{fill:#F9C19B;}
	.st108{fill:#F9CB58;}
	.st109{fill:#F9D2B2;}
	.st110{fill:#F9F07D;}
	.st111{fill:#F9F1D2;}
	.st112{fill:#F9F4B7;}
	.st113{fill:#F9F9E4;}
	.st114{fill:#5F1DAA;}
	.st115{fill:#5F9AD6;}
	.st116{fill:#C0C0C4;}
	.st117{fill:#91EA57;}
	.st118{fill:#C12727;}
	.st119{fill:#C191A0;}
	.st120{fill:#923BB7;}
	.st121{fill:#93A0A3;}
	.st122{fill:#93F9EA;}
	.st123{fill:#93FF5A;}
	.st124{fill:#C4833D;}
	.st125{fill:#95A2A5;}
	.st126{fill:#965514;}
	.st127{fill:#96562C;}
	.st128{fill:#2AF42F;}
	.st129{fill:#C5D7DD;}
	.st130{fill:#C68510;}
	.st131{fill:#C6A86D;}
	.st132{fill:#C6BB8D;}
	.st133{fill:#2C9DCE;}
	.st134{fill:#FBFCF2;}
	.st135{fill:#FC70B0;}
	.st136{fill:#FCE6C8;}
	.st137{fill:#FCF7E3;}
	.st138{fill:#C90D6B;}
	.st139{fill:#FDFEFF;}
	.st140{fill:#FDFFDC;}
	.st141{fill:#FF1A1A;}
	.st142{fill:#FF5252;}
	.st143{fill:#FF5B00;}
	.st144{fill:#FF6155;}
	.st145{fill:#FF630D;}
	.st146{fill:#FF6666;}
	.st147{fill:#FF7676;}
	.st148{fill:#FF7900;}
	.st149{fill:#FF860D;}
	.st150{fill:#FF8B00;}
	.st151{fill:#FF8F8F;}
	.st152{fill:#FF900B;}
	.st153{fill:#FF908A;}
	.st154{fill:#FF960B;}
	.st155{fill:#FF9C0D;}
	.st156{fill:#FFA9D4;}
	.st157{fill:#FFAA00;}
	.st158{fill:#FFAD40;}
	.st159{fill:#FFAF10;}
	.st160{fill:#FFB000;}
	.st161{fill:#FFBE08;}
	.st162{fill:#FFBF31;}
	.st163{fill:#FFC200;}
	.st164{fill:#FFCAE8;}
	.st165{fill:#FFCCF5;}
	.st166{fill:#FFD00B;}
	.st167{fill:#FFD039;}
	.st168{fill:#FFD400;}
	.st169{fill:#FFD833;}
	.st170{fill:#FFDB80;}
	.st171{fill:#FFDDD2;}
	.st172{fill:#FFE6D4;}
	.st173{fill:#FFE6EB;}
	.st174{fill:#FFE98D;}
	.st175{fill:#FFECD2;}
	.st176{fill:#FFF1D9;}
	.st177{fill:#FFF24D;}
	.st178{fill:#FFF3C2;}
	.st179{fill:#FFF4C7;}
	.st180{fill:#FFF800;}
	.st181{fill:#FFF80D;}
	.st182{fill:#FFF9DE;}
	.st183{fill:#FFFBD7;}
	.st184{fill:#FFFBEB;}
	.st185{fill:#FFFCC0;}
	.st186{fill:#FFFCDC;}
	.st187{fill:#FFFFFA;}
	.st188{fill:#FFFFFF;}
	.st189{fill:#63797F;}
	.st190{fill:#65E529;}
	.st191{fill:#66310E;}
	.st192{fill:#663C17;}
	.st193{fill:#9A5AE5;}
	.st194{fill:#CA30EF;}
	.st195{fill:#6892FC;}
	.st196{fill:#9CFFC4;}
	.st197{fill:#CC4306;}
	.st198{fill:#CC549E;}
	.st199{fill:#9E3256;}
	.st200{fill:#CDFFBB;}
	.st201{fill:#CE86AF;}
	.st202{fill:#CED9DD;}
	
		.st203{fill:none;stroke:#33363A;stroke-width:3;stroke-linecap:round;stroke-linejoin:round;stroke-miterlimit:10;stroke-dasharray:6;}
	.st204{fill:#CFE1E2;}
	.st205{fill:#33363A;}
	.st206{fill:#34C166;}
	.st207{fill:#364B5B;}
	.st208{fill:#3662CE;}
	.st209{fill:#36C6FF;}
	.st210{fill:#6ADB9A;}
	.st211{fill:#6D5C4D;}
	.st212{fill:#6EBDF9;}
	.st213{fill:#0031FF;}
	.st214{fill:#0062FF;}
	.st215{fill:#0068FF;}
	.st216{fill:#0086FF;}
	.st217{fill:#009BE8;}
	.st218{fill:#00AAFF;}
	.st219{fill:#D271FF;}
	.st220{fill:#D363A9;}
	.st221{fill:#D3964C;}
	.st222{fill:#D3DFE2;}
	.st223{fill:#D3E0E2;}
	.st224{fill:#D3EFF4;}
	.st225{fill:#063B66;}
	.st226{fill:#D60909;}
	.st227{fill:#D61D1D;}
	.st228{fill:#D7F0FF;}
	.st229{fill:#09B285;}
	.st230{fill:#D8D593;}
	.st231{fill:#D8E2EA;}
	.st232{fill:#D8E5EA;}
	.st233{fill:#3E5054;}
	.st234{fill:#D988FF;}
	.st235{fill:#D9E7E8;}
	.st236{fill:#702252;}
	.st237{fill:#70D3E0;}
	.st238{fill:#A02FF2;}
	.st239{fill:#A2F255;}
	.st240{fill:#A35616;}
	.st241{fill:#A3CCCC;}
	.st242{fill:#0A6ADD;}
	.st243{fill:#A5145D;}
	.st244{fill:#A57555;}
	.st245{fill:#77D6FC;}
	.st246{fill:#7815CE;}
	.st247{fill:#A7BBC1;}
	.st248{fill:#DBD279;}
	.st249{fill:#0D5C9E;}
	.st250{fill:#A83C11;}
	.st251{fill:#A8633D;}
	.st252{fill:#A8A3E5;}
	.st253{fill:#DCE6EA;}
	.st254{fill:#DCE7EA;}
	.st255{fill:#A962E8;}
	.st256{fill:#DD2466;}
	.st257{fill:#DDC38A;}
	.st258{fill:#DDD2B1;}
	.st259{fill:#DFE7E8;}
	.st260{fill:#42B1E8;}
	.st261{fill:#436377;}
	.st262{fill:#43B530;}
]]>
</style><g><g><g><g><g><circle class="st151" cx="107.493" cy="89.392" r="21.931"/></g><g><ellipse class="st141" cx="107.493" cy="89.392" rx="21.931" ry="16.799"/></g><g><path class="st188" d="M85.562,89.392c0,12.113,9.82,21.932,21.932,21.932s21.93-9.818,21.93-21.932H85.562z"/></g><g><path class="st232" d="M107.494,106.19c12.111,0,21.93-7.521,21.93-16.799H85.562C85.562,98.669,95.383,106.19,107.494,106.19z       "/></g><g><path class="st205" d="M107.494,112.823c-12.92,0-23.432-10.512-23.432-23.432c0-12.919,10.512-23.43,23.432-23.43       c12.919,0,23.43,10.511,23.43,23.43C130.924,102.312,120.413,112.823,107.494,112.823z M107.494,68.962       c-11.266,0-20.432,9.165-20.432,20.43c0,11.266,9.166,20.432,20.432,20.432c11.265,0,20.43-9.166,20.43-20.432       C127.924,78.127,118.759,68.962,107.494,68.962z"/></g><g><path class="st205" d="M129.424,90.892H85.562c-0.828,0-1.5-0.672-1.5-1.5s0.672-1.5,1.5-1.5h43.861c0.828,0,1.5,0.672,1.5,1.5       S130.252,90.892,129.424,90.892z"/></g><g><g><circle class="st247" cx="107.494" cy="91.904" r="7.251"/></g><g><circle class="st188" cx="107.494" cy="89.439" r="7.251"/></g><g><path class="st232" d="M102.367,94.567c-2.832-2.832-2.832-7.424,0-10.256s7.422-2.832,10.254,0"/></g><g><path class="st205" d="M107.494,98.189c-2.337,0-4.534-0.909-6.188-2.562c-3.412-3.412-3.412-8.965,0-12.377        c1.653-1.653,3.851-2.563,6.188-2.563s4.534,0.91,6.188,2.563c3.412,3.412,3.412,8.965,0,12.377        C112.028,97.28,109.831,98.189,107.494,98.189z M107.494,83.688c-1.536,0-2.979,0.599-4.066,1.685        c-2.242,2.243-2.242,5.892,0,8.135c1.086,1.085,2.53,1.683,4.066,1.683s2.98-0.598,4.066-1.683        c2.242-2.243,2.242-5.892,0-8.135C110.474,84.286,109.03,83.688,107.494,83.688z"/></g></g></g><g><g><circle class="st209" cx="27.505" cy="45.608" r="21.931"/></g><g><ellipse class="st216" cx="27.505" cy="45.608" rx="21.931" ry="16.799"/></g><g><path class="st188" d="M5.574,45.608c0,12.113,9.82,21.932,21.932,21.932s21.93-9.818,21.93-21.932H5.574z"/></g><g><path class="st232" d="M27.506,62.407c12.111,0,21.93-7.521,21.93-16.799H5.574C5.574,54.886,15.395,62.407,27.506,62.407z"/></g><g><path class="st205" d="M27.506,69.04c-12.92,0-23.432-10.512-23.432-23.432c0-12.919,10.512-23.43,23.432-23.43       c12.919,0,23.43,10.511,23.43,23.43C50.936,58.528,40.425,69.04,27.506,69.04z M27.506,25.179       c-11.266,0-20.432,9.165-20.432,20.43c0,11.266,9.166,20.432,20.432,20.432c11.265,0,20.43-9.166,20.43-20.432       C47.936,34.344,38.771,25.179,27.506,25.179z"/></g><g><path class="st205" d="M49.436,47.108H5.574c-0.828,0-1.5-0.672-1.5-1.5s0.672-1.5,1.5-1.5h43.861c0.828,0,1.5,0.672,1.5,1.5       S50.264,47.108,49.436,47.108z"/></g><g><g><circle class="st247" cx="27.506" cy="48.121" r="7.251"/></g><g><circle class="st188" cx="27.506" cy="45.656" r="7.251"/></g><g><path class="st232" d="M22.379,50.784c-2.832-2.832-2.832-7.424,0-10.256s7.422-2.832,10.254,0"/></g><g><path class="st205" d="M27.506,54.406c-2.337,0-4.534-0.909-6.188-2.562c-3.412-3.412-3.412-8.965,0-12.377        c1.653-1.653,3.851-2.563,6.188-2.563s4.534,0.91,6.188,2.563c3.412,3.412,3.412,8.965,0,12.377        C32.04,53.497,29.843,54.406,27.506,54.406z M27.506,39.904c-1.536,0-2.979,0.599-4.066,1.685        c-2.242,2.243-2.242,5.892,0,8.135c1.086,1.085,2.53,1.683,4.066,1.683s2.98-0.598,4.066-1.683        c2.242-2.243,2.242-5.892,0-8.135C30.485,40.503,29.042,39.904,27.506,39.904z"/></g></g></g></g><g><g><g><g><path class="st205" d="M111.221,25.279c-0.384,0-0.768-0.146-1.061-0.439C98.765,13.445,83.614,7.17,67.5,7.17        s-31.265,6.275-42.66,17.67c-0.586,0.586-1.535,0.586-2.121,0s-0.586-1.535,0-2.121C34.681,10.757,50.584,4.17,67.5,4.17        s32.819,6.587,44.781,18.549c0.586,0.586,0.586,1.535,0,2.121C111.988,25.133,111.604,25.279,111.221,25.279z"/></g><g><path class="st205" d="M67.5,130.831C67.499,130.831,67.501,130.831,67.5,130.831c-16.916,0-32.819-6.588-44.781-18.55        c-0.586-0.586-0.586-1.535,0-2.121s1.535-0.586,2.121,0c11.396,11.396,26.545,17.671,42.66,17.671        c16.114,0.001,31.265-6.275,42.66-17.67c0.586-0.586,1.535-0.586,2.121,0s0.586,1.535,0,2.121        C100.32,124.243,84.415,130.831,67.5,130.831z"/></g></g></g><g><g><g><path class="st151" d="M127.926,41.954c0.412,0.093,0.842-0.031,1.139-0.33c0.299-0.299,0.424-0.729,0.328-1.139        l-5.072-22.242l-18.637,18.638L127.926,41.954z"/></g><g><path class="st141" d="M122.863,36.315c0.25,0.057,0.512-0.02,0.691-0.202c0.182-0.181,0.26-0.44,0.201-0.691l-3.086-13.528        l-11.336,11.336L122.863,36.315z"/></g><g><path class="st205" d="M128.203,43.485c-0.201,0-0.404-0.022-0.606-0.067l-22.247-5.074c-0.808-0.185-1.312-0.989-1.129-1.797        c0.185-0.808,0.989-1.312,1.797-1.129l21.815,4.977l-4.976-21.817c-0.184-0.809,0.321-1.612,1.129-1.797        c0.809-0.181,1.612,0.322,1.797,1.129l5.072,22.242c0.213,0.913-0.06,1.862-0.73,2.533        C129.609,43.204,128.92,43.485,128.203,43.485z"/></g><g><g><path class="st205" d="M121.38,35.43c-0.4,0-0.79-0.16-1.07-0.439c-0.279-0.271-0.43-0.66-0.43-1.061         c0-0.39,0.15-0.78,0.43-1.06c0.561-0.561,1.57-0.561,2.13,0c0.28,0.279,0.44,0.67,0.44,1.06c0,0.4-0.17,0.79-0.44,1.061         C122.16,35.27,121.77,35.43,121.38,35.43z"/></g><g><path class="st205" d="M118.189,32.25c-0.39,0-0.779-0.16-1.06-0.44c-0.28-0.279-0.44-0.67-0.44-1.06         c0-0.4,0.16-0.78,0.44-1.061c0.56-0.56,1.55-0.56,2.12-0.01c0.28,0.29,0.439,0.68,0.439,1.07c0,0.39-0.159,0.78-0.439,1.06         C118.97,32.09,118.58,32.25,118.189,32.25z"/></g><g><path class="st205" d="M115,29.06c-0.391,0-0.78-0.16-1.061-0.439c-0.279-0.28-0.43-0.66-0.43-1.061         c0-0.39,0.15-0.779,0.43-1.06c0.551-0.55,1.561-0.561,2.12,0c0.28,0.28,0.44,0.67,0.44,1.06c0,0.391-0.16,0.78-0.431,1.061         C115.78,28.899,115.399,29.06,115,29.06z"/></g></g></g><g><g><path class="st209" d="M7.074,93.048c-0.412-0.094-0.842,0.03-1.141,0.328c-0.297,0.3-0.422,0.73-0.326,1.141l5.07,22.242        L29.316,98.12L7.074,93.048z"/></g><g><path class="st216" d="M12.137,98.686c-0.252-0.057-0.512,0.021-0.693,0.202c-0.18,0.181-0.258,0.44-0.201,0.69l3.086,13.529        l11.336-11.335L12.137,98.686z"/></g><g><path class="st205" d="M10.677,118.259c-0.685,0-1.303-0.471-1.462-1.167L4.145,94.85c-0.212-0.909,0.058-1.857,0.724-2.529        c0.673-0.672,1.617-0.943,2.539-0.735l22.243,5.072c0.808,0.185,1.312,0.988,1.129,1.797        c-0.185,0.808-0.988,1.313-1.797,1.129L7.167,94.607l4.974,21.818c0.184,0.808-0.322,1.611-1.13,1.796        C10.899,118.247,10.787,118.259,10.677,118.259z"/></g><g><g><path class="st205" d="M13.62,102.569c-0.391,0-0.78-0.159-1.061-0.439c-0.279-0.28-0.439-0.67-0.439-1.061         c0-0.399,0.16-0.779,0.439-1.06c0.561-0.56,1.57-0.56,2.13,0c0.271,0.28,0.431,0.66,0.431,1.06         c0,0.391-0.16,0.78-0.431,1.061C14.399,102.41,14.02,102.569,13.62,102.569z"/></g><g><path class="st205" d="M16.81,105.75c-0.39,0-0.779-0.16-1.06-0.44c-0.28-0.279-0.44-0.66-0.44-1.06         c0-0.391,0.16-0.78,0.44-1.061c0.56-0.56,1.56-0.56,2.12,0c0.279,0.28,0.439,0.67,0.439,1.061c0,0.399-0.16,0.78-0.439,1.06         C17.59,105.59,17.2,105.75,16.81,105.75z"/></g><g><path class="st205" d="M20,108.939c-0.4,0-0.78-0.159-1.061-0.439c-0.279-0.28-0.439-0.67-0.439-1.061         c0-0.399,0.16-0.779,0.439-1.06c0.551-0.561,1.561-0.561,2.12,0c0.28,0.28,0.44,0.66,0.44,1.06c0,0.391-0.16,0.78-0.44,1.061         C20.78,108.78,20.39,108.939,20,108.939z"/></g></g></g></g></g></g><g><g><g><g><path class="st188" d="M98.221,83.67c0.32,0.074,0.658-0.023,0.893-0.257c0.232-0.232,0.33-0.571,0.256-0.893l-3.971-17.413       L80.807,79.699L98.221,83.67z"/></g><g><path class="st29" d="M94.256,79.256c0.197,0.045,0.402-0.015,0.543-0.156c0.143-0.142,0.201-0.346,0.156-0.543l-2.414-10.591       l-8.875,8.875L94.256,79.256z"/></g><g><path class="st205" d="M98.44,85.195c-0.186,0-0.372-0.021-0.559-0.064l-17.408-3.969c-0.809-0.185-1.313-0.988-1.13-1.796       c0.185-0.809,0.995-1.312,1.796-1.13l16.576,3.78l-3.78-16.576c-0.184-0.808,0.321-1.611,1.13-1.796       c0.803-0.184,1.611,0.321,1.796,1.13l3.971,17.413c0.188,0.814-0.063,1.692-0.658,2.286       C99.703,84.942,99.082,85.195,98.44,85.195z"/></g><g><g><path class="st205" d="M90.6,76.399c-0.399,0-0.78-0.159-1.06-0.439c-0.28-0.28-0.44-0.67-0.44-1.061        c0-0.399,0.16-0.779,0.431-1.06c0.569-0.56,1.569-0.56,2.13,0c0.279,0.28,0.439,0.66,0.439,1.06        c0,0.391-0.16,0.78-0.439,1.061C91.38,76.24,90.99,76.399,90.6,76.399z"/></g></g></g><g><path class="st205" d="M85.498,71.298c-0.384,0-0.768-0.146-1.061-0.439l-25.77-25.77c-0.586-0.586-0.586-1.535,0-2.121      s1.535-0.586,2.121,0l25.77,25.77c0.586,0.586,0.586,1.535,0,2.121C86.266,71.151,85.882,71.298,85.498,71.298z"/></g></g><g><g><g><path class="st188" d="M36.779,51.331c-0.322-0.075-0.66,0.022-0.893,0.256c-0.234,0.233-0.33,0.569-0.256,0.893l3.971,17.413       l14.59-14.592L36.779,51.331z"/></g><g><path class="st29" d="M40.742,55.744c-0.195-0.045-0.4,0.014-0.543,0.156c-0.141,0.142-0.201,0.348-0.156,0.543l2.416,10.591       l8.875-8.875L40.742,55.744z"/></g><g><path class="st205" d="M39.601,71.393c-0.685,0-1.303-0.471-1.462-1.167l-3.971-17.413c-0.19-0.83,0.057-1.687,0.66-2.288       c0.591-0.593,1.471-0.842,2.292-0.654l17.404,3.968c0.809,0.185,1.313,0.988,1.13,1.796c-0.185,0.809-0.984,1.313-1.796,1.13       l-16.574-3.779l3.78,16.575c0.184,0.808-0.321,1.611-1.13,1.796C39.823,71.381,39.711,71.393,39.601,71.393z"/></g><g><g><path class="st205" d="M44.399,61.6c-0.39,0-0.779-0.16-1.06-0.439c-0.28-0.28-0.44-0.66-0.44-1.061        c0-0.39,0.16-0.78,0.44-1.06c0.56-0.55,1.56-0.561,2.12,0c0.28,0.279,0.439,0.67,0.439,1.06c0,0.391-0.159,0.78-0.439,1.061        C45.18,61.439,44.79,61.6,44.399,61.6z"/></g></g></g><g><path class="st205" d="M75.271,92.473c-0.384,0-0.768-0.146-1.061-0.439l-25.77-25.769c-0.586-0.586-0.586-1.535,0-2.121      s1.535-0.586,2.121,0l25.77,25.769c0.586,0.586,0.586,1.535,0,2.121C76.039,92.326,75.655,92.473,75.271,92.473z"/></g></g></g></g></svg>